<svg xmlns="http://www.w3.org/2000/svg" xmlns:xlink="http://www.w3.org/1999/xlink" width="262pt" height="424pt" viewBox="0.00 0.00 290.00 470.00">
<g id="graph0" class="graph" transform="scale(1.11 1.11) rotate(0) translate(4 466)">
<title>G</title>
<polygon fill="white" stroke="transparent" points="-4,4 -4,-466 286,-466 286,4 -4,4"/>
<!-- 139853393517424 -->
<g id="node1" class="node">
<title>139853393517424</title>
<polygon fill="none" stroke="black" points="0,-415.5 0,-461.5 282,-461.5 282,-415.5 0,-415.5"/>
<text text-anchor="middle" x="51.5" y="-446.3" font-family="Times,serif" font-size="14.00">dense_input</text>
<polyline fill="none" stroke="black" points="0,-438.5 103,-438.5 "/>
<text text-anchor="middle" x="51.5" y="-423.3" font-family="Times,serif" font-size="14.00">InputLayer</text>
<polyline fill="none" stroke="black" points="103,-415.5 103,-461.5 "/>
<text text-anchor="middle" x="137" y="-446.3" font-family="Times,serif" font-size="14.00">input:</text>
<polyline fill="none" stroke="black" points="103,-438.5 171,-438.5 "/>
<text text-anchor="middle" x="137" y="-423.3" font-family="Times,serif" font-size="14.00">output:</text>
<polyline fill="none" stroke="black" points="171,-415.5 171,-461.5 "/>
<text text-anchor="middle" x="226.5" y="-446.3" font-family="Times,serif" font-size="14.00">[(None, 784)]</text>
<polyline fill="none" stroke="black" points="171,-438.5 282,-438.5 "/>
<text text-anchor="middle" x="226.5" y="-423.3" font-family="Times,serif" font-size="14.00">[(None, 784)]</text>
</g>
<!-- 139853413697904 -->
<g id="node2" class="node">
<title>139853413697904</title>
<polygon fill="none" stroke="black" points="26,-332.5 26,-378.5 256,-378.5 256,-332.5 26,-332.5"/>
<text text-anchor="middle" x="56.5" y="-363.3" font-family="Times,serif" font-size="14.00">dense</text>
<polyline fill="none" stroke="black" points="26,-355.5 87,-355.5 "/>
<text text-anchor="middle" x="56.5" y="-340.3" font-family="Times,serif" font-size="14.00">Dense</text>
<polyline fill="none" stroke="black" points="87,-332.5 87,-378.5 "/>
<text text-anchor="middle" x="121" y="-363.3" font-family="Times,serif" font-size="14.00">input:</text>
<polyline fill="none" stroke="black" points="87,-355.5 155,-355.5 "/>
<text text-anchor="middle" x="121" y="-340.3" font-family="Times,serif" font-size="14.00">output:</text>
<polyline fill="none" stroke="black" points="155,-332.5 155,-378.5 "/>
<text text-anchor="middle" x="205.5" y="-363.3" font-family="Times,serif" font-size="14.00">(None, 784)</text>
<polyline fill="none" stroke="black" points="155,-355.5 256,-355.5 "/>
<text text-anchor="middle" x="205.5" y="-340.3" font-family="Times,serif" font-size="14.00">(None, 500)</text>
</g>
<!-- 139853393517424&#45;&gt;139853413697904 -->
<g id="edge1" class="edge">
<title>139853393517424-&gt;139853413697904</title>
<path fill="none" stroke="black" d="M141,-415.37C141,-407.15 141,-397.66 141,-388.73"/>
<polygon fill="black" stroke="black" points="144.5,-388.61 141,-378.61 137.5,-388.61 144.5,-388.61"/>
</g>
<!-- 139853393656800 -->
<g id="node3" class="node">
<title>139853393656800</title>
<polygon fill="none" stroke="black" points="19,-249.5 19,-295.5 263,-295.5 263,-249.5 19,-249.5"/>
<text text-anchor="middle" x="56.5" y="-280.3" font-family="Times,serif" font-size="14.00">dropout</text>
<polyline fill="none" stroke="black" points="19,-272.5 94,-272.5 "/>
<text text-anchor="middle" x="56.5" y="-257.3" font-family="Times,serif" font-size="14.00">Dropout</text>
<polyline fill="none" stroke="black" points="94,-249.5 94,-295.5 "/>
<text text-anchor="middle" x="128" y="-280.3" font-family="Times,serif" font-size="14.00">input:</text>
<polyline fill="none" stroke="black" points="94,-272.5 162,-272.5 "/>
<text text-anchor="middle" x="128" y="-257.3" font-family="Times,serif" font-size="14.00">output:</text>
<polyline fill="none" stroke="black" points="162,-249.5 162,-295.5 "/>
<text text-anchor="middle" x="212.5" y="-280.3" font-family="Times,serif" font-size="14.00">(None, 500)</text>
<polyline fill="none" stroke="black" points="162,-272.5 263,-272.5 "/>
<text text-anchor="middle" x="212.5" y="-257.3" font-family="Times,serif" font-size="14.00">(None, 500)</text>
</g>
<!-- 139853413697904&#45;&gt;139853393656800 -->
<g id="edge2" class="edge">
<title>139853413697904-&gt;139853393656800</title>
<path fill="none" stroke="black" d="M141,-332.37C141,-324.15 141,-314.66 141,-305.73"/>
<polygon fill="black" stroke="black" points="144.5,-305.61 141,-295.61 137.5,-305.61 144.5,-305.61"/>
</g>
<!-- 139853413705968 -->
<g id="node4" class="node">
<title>139853413705968</title>
<polygon fill="none" stroke="black" points="19.5,-166.5 19.5,-212.5 262.5,-212.5 262.5,-166.5 19.5,-166.5"/>
<text text-anchor="middle" x="56.5" y="-197.3" font-family="Times,serif" font-size="14.00">dense_1</text>
<polyline fill="none" stroke="black" points="19.5,-189.5 93.5,-189.5 "/>
<text text-anchor="middle" x="56.5" y="-174.3" font-family="Times,serif" font-size="14.00">Dense</text>
<polyline fill="none" stroke="black" points="93.5,-166.5 93.5,-212.5 "/>
<text text-anchor="middle" x="127.5" y="-197.3" font-family="Times,serif" font-size="14.00">input:</text>
<polyline fill="none" stroke="black" points="93.5,-189.5 161.5,-189.5 "/>
<text text-anchor="middle" x="127.5" y="-174.3" font-family="Times,serif" font-size="14.00">output:</text>
<polyline fill="none" stroke="black" points="161.5,-166.5 161.5,-212.5 "/>
<text text-anchor="middle" x="212" y="-197.3" font-family="Times,serif" font-size="14.00">(None, 500)</text>
<polyline fill="none" stroke="black" points="161.5,-189.5 262.5,-189.5 "/>
<text text-anchor="middle" x="212" y="-174.3" font-family="Times,serif" font-size="14.00">(None, 300)</text>
</g>
<!-- 139853393656800&#45;&gt;139853413705968 -->
<g id="edge3" class="edge">
<title>139853393656800-&gt;139853413705968</title>
<path fill="none" stroke="black" d="M141,-249.37C141,-241.15 141,-231.66 141,-222.73"/>
<polygon fill="black" stroke="black" points="144.5,-222.61 141,-212.61 137.5,-222.61 144.5,-222.61"/>
</g>
<!-- 139853413704240 -->
<g id="node5" class="node">
<title>139853413704240</title>
<polygon fill="none" stroke="black" points="12,-83.5 12,-129.5 270,-129.5 270,-83.5 12,-83.5"/>
<text text-anchor="middle" x="56.5" y="-114.3" font-family="Times,serif" font-size="14.00">dropout_1</text>
<polyline fill="none" stroke="black" points="12,-106.5 101,-106.5 "/>
<text text-anchor="middle" x="56.5" y="-91.3" font-family="Times,serif" font-size="14.00">Dropout</text>
<polyline fill="none" stroke="black" points="101,-83.5 101,-129.5 "/>
<text text-anchor="middle" x="135" y="-114.3" font-family="Times,serif" font-size="14.00">input:</text>
<polyline fill="none" stroke="black" points="101,-106.5 169,-106.5 "/>
<text text-anchor="middle" x="135" y="-91.3" font-family="Times,serif" font-size="14.00">output:</text>
<polyline fill="none" stroke="black" points="169,-83.5 169,-129.5 "/>
<text text-anchor="middle" x="219.5" y="-114.3" font-family="Times,serif" font-size="14.00">(None, 300)</text>
<polyline fill="none" stroke="black" points="169,-106.5 270,-106.5 "/>
<text text-anchor="middle" x="219.5" y="-91.3" font-family="Times,serif" font-size="14.00">(None, 300)</text>
</g>
<!-- 139853413705968&#45;&gt;139853413704240 -->
<g id="edge4" class="edge">
<title>139853413705968-&gt;139853413704240</title>
<path fill="none" stroke="black" d="M141,-166.37C141,-158.15 141,-148.66 141,-139.73"/>
<polygon fill="black" stroke="black" points="144.5,-139.61 141,-129.61 137.5,-139.61 144.5,-139.61"/>
</g>
<!-- 139853413707888 -->
<g id="node6" class="node">
<title>139853413707888</title>
<polygon fill="none" stroke="black" points="19.5,-0.5 19.5,-46.5 262.5,-46.5 262.5,-0.5 19.5,-0.5"/>
<text text-anchor="middle" x="56.5" y="-31.3" font-family="Times,serif" font-size="14.00">dense_2</text>
<polyline fill="none" stroke="black" points="19.5,-23.5 93.5,-23.5 "/>
<text text-anchor="middle" x="56.5" y="-8.3" font-family="Times,serif" font-size="14.00">Dense</text>
<polyline fill="none" stroke="black" points="93.5,-0.5 93.5,-46.5 "/>
<text text-anchor="middle" x="127.5" y="-31.3" font-family="Times,serif" font-size="14.00">input:</text>
<polyline fill="none" stroke="black" points="93.5,-23.5 161.5,-23.5 "/>
<text text-anchor="middle" x="127.5" y="-8.3" font-family="Times,serif" font-size="14.00">output:</text>
<polyline fill="none" stroke="black" points="161.5,-0.5 161.5,-46.5 "/>
<text text-anchor="middle" x="212" y="-31.3" font-family="Times,serif" font-size="14.00">(None, 300)</text>
<polyline fill="none" stroke="black" points="161.5,-23.5 262.5,-23.5 "/>
<text text-anchor="middle" x="212" y="-8.3" font-family="Times,serif" font-size="14.00">(None, 10)</text>
</g>
<!-- 139853413704240&#45;&gt;139853413707888 -->
<g id="edge5" class="edge">
<title>139853413704240-&gt;139853413707888</title>
<path fill="none" stroke="black" d="M141,-83.37C141,-75.15 141,-65.66 141,-56.73"/>
<polygon fill="black" stroke="black" points="144.5,-56.61 141,-46.61 137.5,-56.61 144.5,-56.61"/>
</g>
</g>
</svg>