<svg xmlns="http://www.w3.org/2000/svg" xmlns:xlink="http://www.w3.org/1999/xlink" width="246pt" height="274pt" viewBox="0.00 0.00 272.00 304.00">
<g id="graph0" class="graph" transform="scale(1.11 1.11) rotate(0) translate(4 300)">
<title>G</title>
<polygon fill="white" stroke="transparent" points="-4,4 -4,-300 268,-300 268,4 -4,4"/>
<!-- 140175990536992 -->
<g id="node1" class="node">
<title>140175990536992</title>
<polygon fill="none" stroke="black" points="0,-249.5 0,-295.5 264,-295.5 264,-249.5 0,-249.5"/>
<text text-anchor="middle" x="51.5" y="-280.3" font-family="Times,serif" font-size="14.00">dense_input</text>
<polyline fill="none" stroke="black" points="0,-272.5 103,-272.5 "/>
<text text-anchor="middle" x="51.5" y="-257.3" font-family="Times,serif" font-size="14.00">InputLayer</text>
<polyline fill="none" stroke="black" points="103,-249.5 103,-295.5 "/>
<text text-anchor="middle" x="137" y="-280.3" font-family="Times,serif" font-size="14.00">input:</text>
<polyline fill="none" stroke="black" points="103,-272.5 171,-272.5 "/>
<text text-anchor="middle" x="137" y="-257.3" font-family="Times,serif" font-size="14.00">output:</text>
<polyline fill="none" stroke="black" points="171,-249.5 171,-295.5 "/>
<text text-anchor="middle" x="217.5" y="-280.3" font-family="Times,serif" font-size="14.00">[(None, 2)]</text>
<polyline fill="none" stroke="black" points="171,-272.5 264,-272.5 "/>
<text text-anchor="middle" x="217.5" y="-257.3" font-family="Times,serif" font-size="14.00">[(None, 2)]</text>
</g>
<!-- 140175018206464 -->
<g id="node2" class="node">
<title>140175018206464</title>
<polygon fill="none" stroke="black" points="21.5,-166.5 21.5,-212.5 242.5,-212.5 242.5,-166.5 21.5,-166.5"/>
<text text-anchor="middle" x="52" y="-197.3" font-family="Times,serif" font-size="14.00">dense</text>
<polyline fill="none" stroke="black" points="21.5,-189.5 82.5,-189.5 "/>
<text text-anchor="middle" x="52" y="-174.3" font-family="Times,serif" font-size="14.00">Dense</text>
<polyline fill="none" stroke="black" points="82.5,-166.5 82.5,-212.5 "/>
<text text-anchor="middle" x="116.5" y="-197.3" font-family="Times,serif" font-size="14.00">input:</text>
<polyline fill="none" stroke="black" points="82.5,-189.5 150.5,-189.5 "/>
<text text-anchor="middle" x="116.5" y="-174.3" font-family="Times,serif" font-size="14.00">output:</text>
<polyline fill="none" stroke="black" points="150.5,-166.5 150.5,-212.5 "/>
<text text-anchor="middle" x="196.5" y="-197.3" font-family="Times,serif" font-size="14.00">(None, 2)</text>
<polyline fill="none" stroke="black" points="150.5,-189.5 242.5,-189.5 "/>
<text text-anchor="middle" x="196.5" y="-174.3" font-family="Times,serif" font-size="14.00">(None, 50)</text>
</g>
<!-- 140175990536992&#45;&gt;140175018206464 -->
<g id="edge1" class="edge">
<title>140175990536992-&gt;140175018206464</title>
<path fill="none" stroke="black" d="M132,-249.37C132,-241.15 132,-231.66 132,-222.73"/>
<polygon fill="black" stroke="black" points="135.5,-222.61 132,-212.61 128.5,-222.61 135.5,-222.61"/>
</g>
<!-- 140173872636944 -->
<g id="node3" class="node">
<title>140173872636944</title>
<polygon fill="none" stroke="black" points="15,-83.5 15,-129.5 249,-129.5 249,-83.5 15,-83.5"/>
<text text-anchor="middle" x="52" y="-114.3" font-family="Times,serif" font-size="14.00">dense_1</text>
<polyline fill="none" stroke="black" points="15,-106.5 89,-106.5 "/>
<text text-anchor="middle" x="52" y="-91.3" font-family="Times,serif" font-size="14.00">Dense</text>
<polyline fill="none" stroke="black" points="89,-83.5 89,-129.5 "/>
<text text-anchor="middle" x="123" y="-114.3" font-family="Times,serif" font-size="14.00">input:</text>
<polyline fill="none" stroke="black" points="89,-106.5 157,-106.5 "/>
<text text-anchor="middle" x="123" y="-91.3" font-family="Times,serif" font-size="14.00">output:</text>
<polyline fill="none" stroke="black" points="157,-83.5 157,-129.5 "/>
<text text-anchor="middle" x="203" y="-114.3" font-family="Times,serif" font-size="14.00">(None, 50)</text>
<polyline fill="none" stroke="black" points="157,-106.5 249,-106.5 "/>
<text text-anchor="middle" x="203" y="-91.3" font-family="Times,serif" font-size="14.00">(None, 20)</text>
</g>
<!-- 140175018206464&#45;&gt;140173872636944 -->
<g id="edge2" class="edge">
<title>140175018206464-&gt;140173872636944</title>
<path fill="none" stroke="black" d="M132,-166.37C132,-158.15 132,-148.66 132,-139.73"/>
<polygon fill="black" stroke="black" points="135.5,-139.61 132,-129.61 128.5,-139.61 135.5,-139.61"/>
</g>
<!-- 140173872641264 -->
<g id="node4" class="node">
<title>140173872641264</title>
<polygon fill="none" stroke="black" points="15,-0.5 15,-46.5 249,-46.5 249,-0.5 15,-0.5"/>
<text text-anchor="middle" x="52" y="-31.3" font-family="Times,serif" font-size="14.00">dense_2</text>
<polyline fill="none" stroke="black" points="15,-23.5 89,-23.5 "/>
<text text-anchor="middle" x="52" y="-8.3" font-family="Times,serif" font-size="14.00">Dense</text>
<polyline fill="none" stroke="black" points="89,-0.5 89,-46.5 "/>
<text text-anchor="middle" x="123" y="-31.3" font-family="Times,serif" font-size="14.00">input:</text>
<polyline fill="none" stroke="black" points="89,-23.5 157,-23.5 "/>
<text text-anchor="middle" x="123" y="-8.3" font-family="Times,serif" font-size="14.00">output:</text>
<polyline fill="none" stroke="black" points="157,-0.5 157,-46.5 "/>
<text text-anchor="middle" x="203" y="-31.3" font-family="Times,serif" font-size="14.00">(None, 20)</text>
<polyline fill="none" stroke="black" points="157,-23.5 249,-23.5 "/>
<text text-anchor="middle" x="203" y="-8.3" font-family="Times,serif" font-size="14.00">(None, 1)</text>
</g>
<!-- 140173872636944&#45;&gt;140173872641264 -->
<g id="edge3" class="edge">
<title>140173872636944-&gt;140173872641264</title>
<path fill="none" stroke="black" d="M132,-83.37C132,-75.15 132,-65.66 132,-56.73"/>
<polygon fill="black" stroke="black" points="135.5,-56.61 132,-46.61 128.5,-56.61 135.5,-56.61"/>
</g>
</g>
</svg>